<?xml version="1.0" encoding="UTF-8" standalone="no"?>
<!DOCTYPE svg PUBLIC "-//W3C//DTD SVG 1.0//EN" "http://www.w3.org/TR/2001/PR-SVG-20010719/DTD/svg10.dtd">
<svg width="44cm" height="15cm" viewBox="59 174 867 287" xmlns="http://www.w3.org/2000/svg" xmlns:xlink="http://www.w3.org/1999/xlink">
  <g>
    <rect style="fill: #ffffff" x="354.917" y="239" width="105.05" height="28"/>
    <rect style="fill: none; fill-opacity:0; stroke-width: 2; stroke: #000000" x="354.917" y="239" width="105.05" height="28"/>
    <text font-size="16" style="fill: #000000;text-anchor:middle;font-family:sans-serif;font-style:normal;font-weight:700" x="407.442" y="258">RFMDriver</text>
  </g>
  <g>
    <rect style="fill: #ffffff" x="769.553" y="175.7" width="109.1" height="28"/>
    <rect style="fill: none; fill-opacity:0; stroke-width: 2; stroke: #000000" x="769.553" y="175.7" width="109.1" height="28"/>
    <text font-size="16" style="fill: #000000;text-anchor:middle;font-family:sans-serif;font-style:normal;font-weight:700" x="824.103" y="194.7">RFMHelper</text>
  </g>
  <g>
    <polyline style="fill: none; fill-opacity:0; stroke-width: 2; stroke: #000000" points="744.382,189.7 607.76,189.7 607.76,253 459.967,253 "/>
    <polygon style="fill: #ffffff" points="769.553,189.7 755.553,194.5 741.553,189.7 755.553,184.9 "/>
    <polygon style="fill: none; fill-opacity:0; stroke-width: 2; stroke: #000000" points="769.553,189.7 755.553,194.5 741.553,189.7 755.553,184.9 "/>
    <text font-size="12.7998" style="fill: #000000;text-anchor:start;font-family:monospace;font-style:normal;font-weight:normal" x="609.76" y="218.35"/>
    <text font-size="12.7998" style="fill: #000000;text-anchor:end;font-family:monospace;font-style:normal;font-weight:normal" x="737.553" y="186.7">1</text>
    <text font-size="12.7998" style="fill: #000000;text-anchor:start;font-family:monospace;font-style:normal;font-weight:normal" x="463.967" y="250">1</text>
  </g>
  <g>
    <rect style="fill: #ffffff" x="768.553" y="216.7" width="47.45" height="28"/>
    <rect style="fill: none; fill-opacity:0; stroke-width: 2; stroke: #000000" x="768.553" y="216.7" width="47.45" height="28"/>
    <text font-size="16" style="fill: #000000;text-anchor:middle;font-family:sans-serif;font-style:normal;font-weight:700" x="792.278" y="235.7">ADC</text>
  </g>
  <g>
    <rect style="fill: #ffffff" x="768.153" y="302.4" width="51.6" height="28"/>
    <rect style="fill: none; fill-opacity:0; stroke-width: 2; stroke: #000000" x="768.153" y="302.4" width="51.6" height="28"/>
    <text font-size="16" style="fill: #000000;text-anchor:middle;font-family:sans-serif;font-style:normal;font-weight:700" x="793.953" y="321.4">DMA</text>
  </g>
  <g>
    <rect style="fill: #ffffff" x="768.753" y="261.1" width="47.45" height="28"/>
    <rect style="fill: none; fill-opacity:0; stroke-width: 2; stroke: #000000" x="768.753" y="261.1" width="47.45" height="28"/>
    <text font-size="16" style="fill: #000000;text-anchor:middle;font-family:sans-serif;font-style:normal;font-weight:700" x="792.478" y="280.1">DAC</text>
  </g>
  <g>
    <rect style="fill: #ffffff" x="547.547" y="429.919" width="60.15" height="28"/>
    <rect style="fill: none; fill-opacity:0; stroke-width: 2; stroke: #000000" x="547.547" y="429.919" width="60.15" height="28"/>
    <text font-size="16" style="fill: #000000;text-anchor:middle;font-family:sans-serif;font-style:normal;font-weight:700" x="577.622" y="448.919">mBox</text>
  </g>
  <g>
    <polyline style="fill: none; fill-opacity:0; stroke-width: 2; stroke: #000000" points="742.376,230.7 607.26,230.7 607.26,253 460.973,253 "/>
    <polygon style="fill: #ffffff" points="767.547,230.7 753.547,235.5 739.547,230.7 753.547,225.9 "/>
    <polygon style="fill: none; fill-opacity:0; stroke-width: 2; stroke: #000000" points="767.547,230.7 753.547,235.5 739.547,230.7 753.547,225.9 "/>
    <text font-size="12.7998" style="fill: #000000;text-anchor:start;font-family:monospace;font-style:normal;font-weight:normal" x="609.26" y="238.85"/>
    <text font-size="12.7998" style="fill: #000000;text-anchor:end;font-family:monospace;font-style:normal;font-weight:normal" x="735.547" y="227.7">1</text>
    <text font-size="12.7998" style="fill: #000000;text-anchor:start;font-family:monospace;font-style:normal;font-weight:normal" x="464.973" y="250">1</text>
  </g>
  <g>
    <polyline style="fill: none; fill-opacity:0; stroke-width: 2; stroke: #000000" points="742.576,275.1 607.36,275.1 607.36,253 460.973,253 "/>
    <polygon style="fill: #ffffff" points="767.747,275.1 753.747,279.9 739.747,275.1 753.747,270.3 "/>
    <polygon style="fill: none; fill-opacity:0; stroke-width: 2; stroke: #000000" points="767.747,275.1 753.747,279.9 739.747,275.1 753.747,270.3 "/>
    <text font-size="12.7998" style="fill: #000000;text-anchor:start;font-family:monospace;font-style:normal;font-weight:normal" x="609.36" y="261.05"/>
    <text font-size="12.7998" style="fill: #000000;text-anchor:end;font-family:monospace;font-style:normal;font-weight:normal" x="735.747" y="272.1">1</text>
    <text font-size="12.7998" style="fill: #000000;text-anchor:start;font-family:monospace;font-style:normal;font-weight:normal" x="464.973" y="250">1</text>
  </g>
  <g>
    <polyline style="fill: none; fill-opacity:0; stroke-width: 2; stroke: #000000" points="741.975,316.4 607.06,316.4 607.06,253 460.973,253 "/>
    <polygon style="fill: #ffffff" points="767.147,316.4 753.147,321.2 739.147,316.4 753.147,311.6 "/>
    <polygon style="fill: none; fill-opacity:0; stroke-width: 2; stroke: #000000" points="767.147,316.4 753.147,321.2 739.147,316.4 753.147,311.6 "/>
    <text font-size="12.7998" style="fill: #000000;text-anchor:start;font-family:monospace;font-style:normal;font-weight:normal" x="609.06" y="281.7"/>
    <text font-size="12.7998" style="fill: #000000;text-anchor:end;font-family:monospace;font-style:normal;font-weight:normal" x="735.147" y="313.4">1</text>
    <text font-size="12.7998" style="fill: #000000;text-anchor:start;font-family:monospace;font-style:normal;font-weight:normal" x="464.973" y="250">1</text>
  </g>
  <g>
    <polyline style="fill: none; fill-opacity:0; stroke-width: 2; stroke: #000000" points="633.878,443.919 923.953,443.919 923.953,316.4 820.756,316.4 "/>
    <polygon style="fill: #ffffff" points="608.706,443.919 622.706,439.119 636.706,443.919 622.706,448.719 "/>
    <polygon style="fill: none; fill-opacity:0; stroke-width: 2; stroke: #000000" points="608.706,443.919 622.706,439.119 636.706,443.919 622.706,448.719 "/>
    <text font-size="12.7998" style="fill: #000000;text-anchor:start;font-family:monospace;font-style:normal;font-weight:normal" x="925.953" y="377.159"/>
    <text font-size="12.7998" style="fill: #000000;text-anchor:start;font-family:monospace;font-style:normal;font-weight:normal" x="640.706" y="440.919">1</text>
    <text font-size="12.7998" style="fill: #000000;text-anchor:start;font-family:monospace;font-style:normal;font-weight:normal" x="824.756" y="313.4">1</text>
  </g>
  <g>
    <polyline style="fill: none; fill-opacity:0; stroke-width: 2; stroke: #000000" points="633.878,443.919 923.953,443.919 923.953,275.1 817.202,275.1 "/>
    <polygon style="fill: #ffffff" points="608.706,443.919 622.706,439.119 636.706,443.919 622.706,448.719 "/>
    <polygon style="fill: none; fill-opacity:0; stroke-width: 2; stroke: #000000" points="608.706,443.919 622.706,439.119 636.706,443.919 622.706,448.719 "/>
    <text font-size="12.7998" style="fill: #000000;text-anchor:start;font-family:monospace;font-style:normal;font-weight:normal" x="925.953" y="356.509"/>
    <text font-size="12.7998" style="fill: #000000;text-anchor:start;font-family:monospace;font-style:normal;font-weight:normal" x="640.706" y="440.919">1</text>
    <text font-size="12.7998" style="fill: #000000;text-anchor:start;font-family:monospace;font-style:normal;font-weight:normal" x="821.202" y="272.1">1</text>
  </g>
  <g>
    <polyline style="fill: none; fill-opacity:0; stroke-width: 2; stroke: #000000" points="633.878,443.919 923.953,443.919 923.953,230.7 817.008,230.7 "/>
    <polygon style="fill: #ffffff" points="608.706,443.919 622.706,439.119 636.706,443.919 622.706,448.719 "/>
    <polygon style="fill: none; fill-opacity:0; stroke-width: 2; stroke: #000000" points="608.706,443.919 622.706,439.119 636.706,443.919 622.706,448.719 "/>
    <text font-size="12.7998" style="fill: #000000;text-anchor:start;font-family:monospace;font-style:normal;font-weight:normal" x="925.953" y="334.309"/>
    <text font-size="12.7998" style="fill: #000000;text-anchor:start;font-family:monospace;font-style:normal;font-weight:normal" x="640.706" y="440.919">1</text>
    <text font-size="12.7998" style="fill: #000000;text-anchor:start;font-family:monospace;font-style:normal;font-weight:normal" x="821.008" y="227.7">1</text>
  </g>
  <g>
    <polyline style="fill: none; fill-opacity:0; stroke-width: 2; stroke: #000000" points="633.868,443.919 924.32,443.919 924.32,189.7 879.656,189.7 "/>
    <polygon style="fill: #ffffff" points="608.697,443.919 622.697,439.119 636.697,443.919 622.697,448.719 "/>
    <polygon style="fill: none; fill-opacity:0; stroke-width: 2; stroke: #000000" points="608.697,443.919 622.697,439.119 636.697,443.919 622.697,448.719 "/>
    <text font-size="12.7998" style="fill: #000000;text-anchor:start;font-family:monospace;font-style:normal;font-weight:normal" x="926.32" y="313.809"/>
    <text font-size="12.7998" style="fill: #000000;text-anchor:start;font-family:monospace;font-style:normal;font-weight:normal" x="640.697" y="440.919">1</text>
    <text font-size="12.7998" style="fill: #000000;text-anchor:start;font-family:monospace;font-style:normal;font-weight:normal" x="883.656" y="186.7">1</text>
  </g>
  <g>
    <polyline style="fill: none; fill-opacity:0; stroke-width: 2; stroke: #000000" points="521.368,443.919 496.756,443.919 496.756,253 460.973,253 "/>
    <polygon style="fill: #ffffff" points="546.54,443.919 532.54,448.719 518.54,443.919 532.54,439.119 "/>
    <polygon style="fill: none; fill-opacity:0; stroke-width: 2; stroke: #000000" points="546.54,443.919 532.54,448.719 518.54,443.919 532.54,439.119 "/>
    <text font-size="12.7998" style="fill: #000000;text-anchor:start;font-family:monospace;font-style:normal;font-weight:normal" x="498.756" y="345.459"/>
    <text font-size="12.7998" style="fill: #000000;text-anchor:end;font-family:monospace;font-style:normal;font-weight:normal" x="514.54" y="440.919">1</text>
    <text font-size="12.7998" style="fill: #000000;text-anchor:start;font-family:monospace;font-style:normal;font-weight:normal" x="464.973" y="250">1</text>
  </g>
  <g>
    <polyline style="fill: none; fill-opacity:0; stroke-width: 2; stroke: #000000" points="633.876,443.919 653.923,443.919 653.923,443.619 685.142,443.619 "/>
    <polygon style="fill: #ffffff" points="608.705,443.919 622.705,439.119 636.705,443.919 622.705,448.719 "/>
    <polygon style="fill: none; fill-opacity:0; stroke-width: 2; stroke: #000000" points="608.705,443.919 622.705,439.119 636.705,443.919 622.705,448.719 "/>
    <text font-size="12.7998" style="fill: #000000;text-anchor:start;font-family:monospace;font-style:normal;font-weight:normal" x="655.923" y="440.769"/>
    <text font-size="12.7998" style="fill: #000000;text-anchor:start;font-family:monospace;font-style:normal;font-weight:normal" x="640.705" y="440.919">1</text>
    <text font-size="12.7998" style="fill: #000000;text-anchor:end;font-family:monospace;font-style:normal;font-weight:normal" x="681.142" y="440.619">1</text>
  </g>
  <g>
    <rect style="fill: #ffffff" x="686.147" y="429.619" width="175.75" height="28"/>
    <rect style="fill: none; fill-opacity:0; stroke-width: 2; stroke: #000000" x="686.147" y="429.619" width="175.75" height="28"/>
    <text font-size="16" style="fill: #000000;text-anchor:middle;font-family:sans-serif;font-style:normal;font-weight:700" x="774.022" y="448.619">CorrectionHandler</text>
  </g>
  <g>
    <polygon style="fill: #ffffff" points="60.9168,234 144.917,234 186.917,254.5 144.917,275 60.9168,275 "/>
    <polygon style="fill: none; fill-opacity:0; stroke-width: 2; stroke: #000000" points="60.9168,234 144.917,234 186.917,254.5 144.917,275 60.9168,275 "/>
    <polygon style="fill: none; fill-opacity:0; stroke-width: 2; stroke: #000000" points="60.9168,234 144.917,234 186.917,254.5 144.917,275 60.9168,275 "/>
  </g>
  <text font-size="12.8" style="fill: #000000;text-anchor:middle;font-family:sans-serif;font-style:normal;font-weight:normal" x="126.25" y="258.95">
    <tspan x="126.25" y="258.95">rfm2g_api</tspan>
  </text>
  <g>
    <line style="fill: none; fill-opacity:0; stroke-width: 2; stroke: #000000" x1="220.653" y1="251.921" x2="325.181" y2="251.079"/>
    <polygon style="fill: none; fill-opacity:0; stroke-width: 2; stroke: #000000" points="213.153,251.982 223.112,246.901 220.653,251.921 223.193,256.901 "/>
    <polygon style="fill: none; fill-opacity:0; stroke-width: 2; stroke: #000000" points="332.681,251.018 322.721,256.099 325.181,251.079 322.641,246.099 "/>
  </g>
  <text font-size="12.8" style="fill: #000000;text-anchor:middle;font-family:sans-serif;font-style:normal;font-weight:normal" x="272.917" y="248.5">
    <tspan x="272.917" y="248.5">interact</tspan>
  </text>
</svg>
