<?xml version="1.0" encoding="UTF-8" standalone="no"?>
<!DOCTYPE svg PUBLIC "-//W3C//DTD SVG 1.0//EN" "http://www.w3.org/TR/2001/PR-SVG-20010719/DTD/svg10.dtd">
<svg width="71cm" height="27cm" viewBox="15 49 1418 537" xmlns="http://www.w3.org/2000/svg" xmlns:xlink="http://www.w3.org/1999/xlink">
  <g>
    <rect style="fill: #ffffff" x="275.916" y="243" width="105.05" height="28"/>
    <rect style="fill: none; fill-opacity:0; stroke-width: 2; stroke: #000000" x="275.916" y="243" width="105.05" height="28"/>
    <text font-size="16" style="fill: #000000;text-anchor:middle;font-family:sans-serif;font-style:normal;font-weight:700" x="328.441" y="262">RFMDriver</text>
  </g>
  <g>
    <rect style="fill: #ffffff" x="385.554" y="344.7" width="109.1" height="28"/>
    <rect style="fill: none; fill-opacity:0; stroke-width: 2; stroke: #000000" x="385.554" y="344.7" width="109.1" height="28"/>
    <text font-size="16" style="fill: #000000;text-anchor:middle;font-family:sans-serif;font-style:normal;font-weight:700" x="440.104" y="363.7">RFMHelper</text>
  </g>
  <g>
    <polyline style="fill: none; fill-opacity:0; stroke-width: 2; stroke: #000000" points="440.104,318.521 440.104,257 380.966,257 "/>
    <polygon style="fill: #ffffff" points="440.104,343.693 435.304,329.693 440.104,315.693 444.904,329.693 "/>
    <polygon style="fill: none; fill-opacity:0; stroke-width: 2; stroke: #000000" points="440.104,343.693 435.304,329.693 440.104,315.693 444.904,329.693 "/>
    <text font-size="12.7998" style="fill: #000000;text-anchor:middle;font-family:monospace;font-style:normal;font-weight:normal" x="410.535" y="254"/>
    <text font-size="12.7998" style="fill: #000000;text-anchor:start;font-family:monospace;font-style:normal;font-weight:normal" x="451.104" y="339.693">1</text>
    <text font-size="12.7998" style="fill: #000000;text-anchor:start;font-family:monospace;font-style:normal;font-weight:normal" x="384.966" y="254">1</text>
  </g>
  <g>
    <rect style="fill: #ffffff" x="674.554" y="213.7" width="47.45" height="28"/>
    <rect style="fill: none; fill-opacity:0; stroke-width: 2; stroke: #000000" x="674.554" y="213.7" width="47.45" height="28"/>
    <text font-size="16" style="fill: #000000;text-anchor:middle;font-family:sans-serif;font-style:normal;font-weight:700" x="698.279" y="232.7">ADC</text>
  </g>
  <g>
    <rect style="fill: #ffffff" x="635.154" y="486.4" width="51.6" height="28"/>
    <rect style="fill: none; fill-opacity:0; stroke-width: 2; stroke: #000000" x="635.154" y="486.4" width="51.6" height="28"/>
    <text font-size="16" style="fill: #000000;text-anchor:middle;font-family:sans-serif;font-style:normal;font-weight:700" x="660.954" y="505.4">DMA</text>
  </g>
  <g>
    <rect style="fill: #ffffff" x="611.754" y="270.1" width="47.45" height="28"/>
    <rect style="fill: none; fill-opacity:0; stroke-width: 2; stroke: #000000" x="611.754" y="270.1" width="47.45" height="28"/>
    <text font-size="16" style="fill: #000000;text-anchor:middle;font-family:sans-serif;font-style:normal;font-weight:700" x="635.479" y="289.1">DAC</text>
  </g>
  <g>
    <rect style="fill: #ffffff" x="1014.55" y="324.918" width="60.15" height="28"/>
    <rect style="fill: none; fill-opacity:0; stroke-width: 2; stroke: #000000" x="1014.55" y="324.918" width="60.15" height="28"/>
    <text font-size="16" style="fill: #000000;text-anchor:middle;font-family:sans-serif;font-style:normal;font-weight:700" x="1044.62" y="343.918">mBox</text>
  </g>
  <g>
    <polyline style="fill: none; fill-opacity:0; stroke-width: 2; stroke: #000000" points="648.383,227.7 521,227.7 521,257 381.969,257 "/>
    <polygon style="fill: #ffffff" points="673.555,227.7 659.555,232.5 645.555,227.7 659.555,222.9 "/>
    <polygon style="fill: none; fill-opacity:0; stroke-width: 2; stroke: #000000" points="673.555,227.7 659.555,232.5 645.555,227.7 659.555,222.9 "/>
    <text font-size="12.7998" style="fill: #000000;text-anchor:start;font-family:monospace;font-style:normal;font-weight:normal" x="523" y="239.35"/>
    <text font-size="12.7998" style="fill: #000000;text-anchor:end;font-family:monospace;font-style:normal;font-weight:normal" x="641.555" y="224.7">1</text>
    <text font-size="12.7998" style="fill: #000000;text-anchor:start;font-family:monospace;font-style:normal;font-weight:normal" x="385.969" y="254">1</text>
  </g>
  <g>
    <polyline style="fill: none; fill-opacity:0; stroke-width: 2; stroke: #000000" points="989.376,338.918 912.917,338.918 912.917,500.4 686.754,500.4 "/>
    <polygon style="fill: #ffffff" points="1014.55,338.918 1000.55,343.718 986.548,338.918 1000.55,334.118 "/>
    <polygon style="fill: none; fill-opacity:0; stroke-width: 2; stroke: #000000" points="1014.55,338.918 1000.55,343.718 986.548,338.918 1000.55,334.118 "/>
    <text font-size="12.7998" style="fill: #000000;text-anchor:start;font-family:monospace;font-style:normal;font-weight:normal" x="914.917" y="416.659"/>
    <text font-size="12.7998" style="fill: #000000;text-anchor:end;font-family:monospace;font-style:normal;font-weight:normal" x="982.548" y="335.918">1</text>
    <text font-size="12.7998" style="fill: #000000;text-anchor:start;font-family:monospace;font-style:normal;font-weight:normal" x="690.754" y="497.4">1</text>
  </g>
  <g>
    <rect style="fill: #ffffff" x="766.148" y="127.618" width="175.75" height="28"/>
    <rect style="fill: none; fill-opacity:0; stroke-width: 2; stroke: #000000" x="766.148" y="127.618" width="175.75" height="28"/>
    <text font-size="16" style="fill: #000000;text-anchor:middle;font-family:sans-serif;font-style:normal;font-weight:700" x="854.023" y="146.618">CorrectionHandler</text>
  </g>
  <g>
    <polygon style="fill: #ffffff" points="16.9168,233 100.917,233 142.917,253.5 100.917,274 16.9168,274 "/>
    <polygon style="fill: none; fill-opacity:0; stroke-width: 2; stroke: #000000" points="16.9168,233 100.917,233 142.917,253.5 100.917,274 16.9168,274 "/>
    <polygon style="fill: none; fill-opacity:0; stroke-width: 2; stroke: #000000" points="16.9168,233 100.917,233 142.917,253.5 100.917,274 16.9168,274 "/>
  </g>
  <text font-size="12.8" style="fill: #000000;text-anchor:middle;font-family:sans-serif;font-style:normal;font-weight:normal" x="82.2501" y="257.95">
    <tspan x="82.2501" y="257.95">rfm2g_api</tspan>
  </text>
  <g>
    <line style="fill: none; fill-opacity:0; stroke-width: 2; stroke: #000000" x1="169.652" y1="252.072" x2="251.181" y2="252.678"/>
    <polygon style="fill: none; fill-opacity:0; stroke-width: 2; stroke: #000000" points="162.152,252.017 172.189,247.091 169.652,252.072 172.115,257.091 "/>
    <polygon style="fill: none; fill-opacity:0; stroke-width: 2; stroke: #000000" points="258.681,252.733 248.644,257.659 251.181,252.678 248.718,247.659 "/>
  </g>
  <text font-size="12.8" style="fill: #000000;text-anchor:middle;font-family:sans-serif;font-style:normal;font-weight:normal" x="210.416" y="249.375">
    <tspan x="210.416" y="249.375">interact</tspan>
  </text>
  <g>
    <rect style="fill: #ffffff" x="871.6" y="242.7" width="81.85" height="28"/>
    <rect style="fill: none; fill-opacity:0; stroke-width: 2; stroke: #000000" x="871.6" y="242.7" width="81.85" height="28"/>
    <text font-size="16" style="fill: #000000;text-anchor:middle;font-family:sans-serif;font-style:italic;font-weight:700" x="912.525" y="261.7">Handler</text>
  </g>
  <g>
    <polyline style="fill: none; fill-opacity:0; stroke-width: 2; stroke: #000000" points="912.525,223.457 912.525,191.159 854.023,191.159 854.023,156.625 "/>
    <polygon style="fill: #ffffff" points="904.525,223.457 912.525,239.457 920.525,223.457 "/>
    <polygon style="fill: none; fill-opacity:0; stroke-width: 2; stroke: #000000" points="904.525,223.457 912.525,239.457 920.525,223.457 "/>
  </g>
  <g>
    <rect style="fill: #ffffff" x="234.6" y="142.7" width="186.9" height="28"/>
    <rect style="fill: none; fill-opacity:0; stroke-width: 2; stroke: #000000" x="234.6" y="142.7" width="186.9" height="28"/>
    <text font-size="16" style="fill: #000000;text-anchor:middle;font-family:sans-serif;font-style:italic;font-weight:700" x="328.05" y="161.7">RFMDriverInterface</text>
  </g>
  <g>
    <polyline style="fill: none; fill-opacity:0; stroke-width: 2; stroke-dasharray: 8; stroke: #000000" points="328.05,189.943 328.05,214.85 328.441,214.85 328.441,241.993 "/>
    <polygon style="fill: #ffffff" points="336.05,189.943 328.05,173.943 320.05,189.943 "/>
    <polygon style="fill: none; fill-opacity:0; stroke-width: 2; stroke: #000000" points="336.05,189.943 328.05,173.943 320.05,189.943 "/>
  </g>
  <g>
    <polyline style="fill: none; fill-opacity:0; stroke-width: 2; stroke: #000000" points="1044.62,299.746 1044.62,256.7 953.45,256.7 "/>
    <polygon style="fill: #ffffff" points="1044.62,324.918 1039.82,310.918 1044.62,296.918 1049.42,310.918 "/>
    <polygon style="fill: none; fill-opacity:0; stroke-width: 2; stroke: #000000" points="1044.62,324.918 1039.82,310.918 1044.62,296.918 1049.42,310.918 "/>
  </g>
  <g>
    <polyline style="fill: none; fill-opacity:0; stroke-width: 2; stroke: #000000" points="845.44,256.7 826.899,256.7 826.899,284.1 659.204,284.1 "/>
    <polygon style="fill: #ffffff" points="870.611,256.7 856.611,261.5 842.611,256.7 856.611,251.9 "/>
    <polygon style="fill: none; fill-opacity:0; stroke-width: 2; stroke: #000000" points="870.611,256.7 856.611,261.5 842.611,256.7 856.611,251.9 "/>
  </g>
  <g>
    <polyline style="fill: none; fill-opacity:0; stroke-width: 2; stroke: #000000" points="845.51,256.7 827,256.7 827,227.7 722.996,227.7 "/>
    <polygon style="fill: #ffffff" points="870.681,256.7 856.681,261.5 842.681,256.7 856.681,251.9 "/>
    <polygon style="fill: none; fill-opacity:0; stroke-width: 2; stroke: #000000" points="870.681,256.7 856.681,261.5 842.681,256.7 856.681,251.9 "/>
  </g>
  <g>
    <polyline style="fill: none; fill-opacity:0; stroke-width: 2; stroke: #000000" points="912.525,295.872 912.525,500.4 686.754,500.4 "/>
    <polygon style="fill: #ffffff" points="912.525,270.7 917.325,284.7 912.525,298.7 907.725,284.7 "/>
    <polygon style="fill: none; fill-opacity:0; stroke-width: 2; stroke: #000000" points="912.525,270.7 917.325,284.7 912.525,298.7 907.725,284.7 "/>
  </g>
  <g>
    <rect style="fill: #ffffff" x="971.6" y="127.7" width="158.5" height="28"/>
    <rect style="fill: none; fill-opacity:0; stroke-width: 2; stroke: #000000" x="971.6" y="127.7" width="158.5" height="28"/>
    <text font-size="16" style="fill: #000000;text-anchor:middle;font-family:sans-serif;font-style:normal;font-weight:700" x="1050.85" y="146.7">MeasureHandler</text>
  </g>
  <g>
    <polyline style="fill: none; fill-opacity:0; stroke-width: 2; stroke: #000000" points="912.525,223.515 912.525,191 1050.85,191 1050.85,156.703 "/>
    <polygon style="fill: #ffffff" points="904.525,223.515 912.525,239.515 920.525,223.515 "/>
    <polygon style="fill: none; fill-opacity:0; stroke-width: 2; stroke: #000000" points="904.525,223.515 912.525,239.515 920.525,223.515 "/>
  </g>
  <g>
    <rect style="fill: #ffffff" x="757.6" y="50.7" width="193.35" height="28"/>
    <rect style="fill: none; fill-opacity:0; stroke-width: 2; stroke: #000000" x="757.6" y="50.7" width="193.35" height="28"/>
    <text font-size="16" style="fill: #000000;text-anchor:middle;font-family:sans-serif;font-style:normal;font-weight:700" x="854.275" y="69.7">CorrectionProcessor</text>
  </g>
  <g>
    <polyline style="fill: none; fill-opacity:0; stroke-width: 2; stroke: #000000" points="854.023,101.439 854.023,96.159 854.275,96.159 854.275,79.7073 "/>
    <polygon style="fill: #000000" points="854.023,126.611 849.223,112.611 854.023,98.6107 858.823,112.611 "/>
    <polygon style="fill: none; fill-opacity:0; stroke-width: 2; stroke: #000000" points="854.023,126.611 849.223,112.611 854.023,98.6107 858.823,112.611 "/>
    <text font-size="12.7998" style="fill: #000000;text-anchor:start;font-family:monospace;font-style:normal;font-weight:normal" x="865.023" y="122.611">1</text>
    <text font-size="12.7998" style="fill: #000000;text-anchor:start;font-family:monospace;font-style:normal;font-weight:normal" x="858.275" y="91.7073">1</text>
  </g>
  <g>
    <polyline style="fill: none; fill-opacity:0; stroke-width: 2; stroke: #000000" points="520.832,358.7 572.407,358.7 572.407,500.4 635.154,500.4 "/>
    <polygon style="fill: #ffffff" points="495.661,358.7 509.661,353.9 523.661,358.7 509.661,363.5 "/>
    <polygon style="fill: none; fill-opacity:0; stroke-width: 2; stroke: #000000" points="495.661,358.7 509.661,353.9 523.661,358.7 509.661,363.5 "/>
  </g>
  <g>
    <polyline style="fill: none; fill-opacity:0; stroke-width: 2; stroke: #000000" points="698.279,267.865 698.279,399 660.954,399 660.954,486.4 "/>
    <polygon style="fill: #ffffff" points="698.279,242.693 703.079,256.693 698.279,270.693 693.479,256.693 "/>
    <polygon style="fill: none; fill-opacity:0; stroke-width: 2; stroke: #000000" points="698.279,242.693 703.079,256.693 698.279,270.693 693.479,256.693 "/>
  </g>
  <g>
    <polyline style="fill: none; fill-opacity:0; stroke-width: 2; stroke: #000000" points="635.479,323.272 635.479,399.25 660.954,399.25 660.954,486.4 "/>
    <polygon style="fill: #ffffff" points="635.479,298.1 640.279,312.1 635.479,326.1 630.679,312.1 "/>
    <polygon style="fill: none; fill-opacity:0; stroke-width: 2; stroke: #000000" points="635.479,298.1 640.279,312.1 635.479,326.1 630.679,312.1 "/>
  </g>
  <g>
    <polyline style="fill: none; fill-opacity:0; stroke-width: 2; stroke: #000000" points="585.587,284.1 521,284.1 521,257 381.969,257 "/>
    <polygon style="fill: #ffffff" points="610.758,284.1 596.758,288.9 582.758,284.1 596.758,279.3 "/>
    <polygon style="fill: none; fill-opacity:0; stroke-width: 2; stroke: #000000" points="610.758,284.1 596.758,288.9 582.758,284.1 596.758,279.3 "/>
  </g>
  <g>
    <polyline style="fill: none; fill-opacity:0; stroke-width: 2; stroke: #000000" points="1044.62,379.04 1044.62,570 328.441,570 328.441,271.997 "/>
    <polygon style="fill: #ffffff" points="1044.62,353.868 1049.42,367.868 1044.62,381.868 1039.82,367.868 "/>
    <polygon style="fill: none; fill-opacity:0; stroke-width: 2; stroke: #000000" points="1044.62,353.868 1049.42,367.868 1044.62,381.868 1039.82,367.868 "/>
  </g>
  <g>
    <polygon style="fill: #ffffff" points="1432.6,121.7 1348.6,121.7 1306.6,142.85 1348.6,164 1432.6,164 "/>
    <polygon style="fill: none; fill-opacity:0; stroke-width: 2; stroke: #000000" points="1432.6,121.7 1348.6,121.7 1306.6,142.85 1348.6,164 1432.6,164 "/>
    <polygon style="fill: none; fill-opacity:0; stroke-width: 2; stroke: #000000" points="1432.6,121.7 1348.6,121.7 1306.6,142.85 1348.6,164 1432.6,164 "/>
  </g>
  <text font-size="12.8" style="fill: #000000;text-anchor:middle;font-family:sans-serif;font-style:normal;font-weight:normal" x="1367.27" y="139.3">
    <tspan x="1367.27" y="139.3">Python</tspan>
    <tspan x="1367.27" y="155.3">Numpy</tspan>
  </text>
  <g>
    <line style="fill: none; fill-opacity:0; stroke-width: 2; stroke: #000000" x1="1164.33" y1="143.621" x2="1268.86" y2="142.779"/>
    <polygon style="fill: none; fill-opacity:0; stroke-width: 2; stroke: #000000" points="1156.84,143.682 1166.79,138.601 1164.33,143.621 1166.88,148.601 "/>
    <polygon style="fill: none; fill-opacity:0; stroke-width: 2; stroke: #000000" points="1276.36,142.718 1266.4,147.799 1268.86,142.779 1266.32,137.799 "/>
  </g>
  <text font-size="12.8" style="fill: #000000;text-anchor:middle;font-family:sans-serif;font-style:normal;font-weight:normal" x="1216.6" y="140.2">
    <tspan x="1216.6" y="140.2">interact</tspan>
  </text>
</svg>
